<svg width="236" height="326" viewBox="0 0 236 326" fill="none" xmlns="http://www.w3.org/2000/svg">
<rect width="236" height="326" rx="20" fill="#8B6CAC"/>
<path d="M66.3419 111.33H67.9519V108.67H69.5269V105.625H71.0319V102.755H72.6069V99.36H74.6369V97.715H79.5369V99.395H81.2169V127.465H79.5369V129.18H75.1269V127.465H73.4119V116.58H72.2219V118.575H71.1719V120.71H69.9819V122.915H68.6169V125.26H67.1119V126.87H63.7519V125.26H62.2819V122.915H60.9169V120.71H59.7269V118.575H58.6419V116.58H57.4519V127.465H55.7719V129.18H51.3269V127.465H49.6469V99.395H51.3269V97.715H56.2269V99.36H58.2569V102.755H59.8319V105.625H61.3369V108.67H62.9119V111.33H64.5219V113.605H66.3419V111.33ZM109.015 103.42V123.475H107.02V125.61H105.095V127.465H103.31V129.18H90.0101V127.465H88.2251V125.61H86.3001V123.475H84.3051V103.42H86.3001V101.285H88.2251V99.395H90.0101V97.715H103.31V99.395H105.095V101.285H107.02V103.42H109.015ZM92.3901 106.85V120.045H94.2101V121.935H99.1101V120.045H100.93V106.85H99.1101V104.925H94.2101V106.85H92.3901ZM118.604 129.18H113.844V127.465H112.129V99.395H113.844V97.715H118.779V99.395H120.459V102.685H122.034V104.75H123.539V106.92H124.974V109.23H126.409V111.61H127.599V99.395H129.314V97.715H134.074V99.395H135.789V127.465H134.074V129.18H129.139V127.465H127.459V124.21H125.884V122.11H124.379V119.94H122.944V117.665H121.474V115.285H120.284V127.465H118.604V129.18ZM159.469 109.79V111.61H161.289V115.285H159.469V117.105H147.079V121.865H159.469V123.545H161.289V127.465H159.469V129.18H140.744V127.36H138.924V99.535H140.744V97.715H159.469V99.395H161.289V103.28H159.469V104.995H147.079V109.79H159.469ZM169.755 113.745V111.47H168.04V109.265H166.29V107.13H164.505V105.24H162.79V99.325H164.505V97.715H169.51V99.325H171.295V101.635H173.01V103.84H174.655V105.905H176.615V103.84H178.26V101.635H179.975V99.325H181.76V97.715H186.765V99.325H188.48V105.24H186.765V107.13H184.98V109.265H183.265V111.47H181.515V113.745H179.835V127.78H178.435V129.18H172.835V127.78H171.435V113.745H169.755ZM86.8005 223.62V225.23H88.4805V229.57H86.8005V231.18H69.5105V229.57H67.8305V201.325H69.4405V199.715H74.6205V201.325H76.2305V223.62H86.8005ZM115.373 205.42V225.475H113.378V227.61H111.453V229.465H109.668V231.18H96.3676V229.465H94.5826V227.61H92.6576V225.475H90.6626V205.42H92.6576V203.285H94.5826V201.395H96.3676V199.715H109.668V201.395H111.453V203.285H113.378V205.42H115.373ZM98.7476 208.85V222.045H100.568V223.935H105.468V222.045H107.288V208.85H105.468V206.925H100.568V208.85H98.7476ZM118.416 223.62V201.465H120.236V199.715H124.926V201.465H126.641V217.915H128.426V220.12H130.176V222.465H132.381V220.12H134.131V217.915H135.916V201.465H137.666V199.715H142.356V201.465H144.176V223.62H141.936V225.545H139.801V227.435H137.771V229.22H135.741V231.18H126.816V229.22H124.821V227.435H122.791V225.545H120.656V223.62H118.416ZM167.809 211.79V213.61H169.629V217.285H167.809V219.105H155.419V223.865H167.809V225.545H169.629V229.465H167.809V231.18H149.084V229.36H147.264V201.535H149.084V199.715H167.809V201.395H169.629V205.28H167.809V206.995H155.419V211.79H167.809Z" fill="white"/>
<g clip-path="url(#clip0_546_673)">
<path d="M196.856 64.1388C197.32 62.9355 198.752 62.8769 199.313 63.9583L199.394 64.1388L200.827 67.8517C202.078 71.0927 204.158 73.8166 206.79 75.6592L207.233 75.9584L209.777 77.6051C209.979 77.7354 210.149 77.922 210.273 78.1478C210.397 78.3735 210.469 78.6313 210.484 78.8976C210.499 79.164 210.456 79.4303 210.358 79.6725C210.261 79.9147 210.112 80.1249 209.926 80.2841L209.778 80.3949L207.233 82.0416C204.548 83.7806 202.388 86.4222 201.043 89.6131L200.827 90.1482L199.394 93.8612C198.929 95.0645 197.498 95.1231 196.937 94.0417L196.856 93.8612L195.423 90.1482C194.172 86.9073 192.091 84.1834 189.46 82.3408L189.017 82.0416L186.473 80.3949C186.271 80.2645 186.1 80.078 185.977 79.8522C185.853 79.6264 185.78 79.3686 185.766 79.1023C185.751 78.836 185.794 78.5696 185.891 78.3275C185.989 78.0853 186.137 77.8751 186.323 77.7159L186.472 77.6051L189.017 75.9584C191.702 74.2193 193.861 71.5777 195.207 68.3869L195.423 67.8517L196.856 64.1388ZM209.429 63.3582C210.111 65.1437 211.275 66.6284 212.748 67.5921C212.968 67.7346 212.968 68.0987 212.748 68.2412C211.274 69.205 210.11 70.6903 209.427 72.4767C209.401 72.5439 209.359 72.601 209.305 72.6411C209.251 72.6811 209.189 72.7025 209.125 72.7025C209.061 72.7025 208.998 72.6811 208.945 72.6411C208.891 72.601 208.848 72.5439 208.822 72.4767C208.14 70.6909 206.975 69.2062 205.502 68.2428C205.452 68.2102 205.411 68.1629 205.382 68.1059C205.353 68.0489 205.338 67.9842 205.338 67.9182C205.338 67.8523 205.353 67.7876 205.382 67.7306C205.411 67.6735 205.452 67.6263 205.502 67.5937C206.976 66.6294 208.14 65.1436 208.822 63.3567C208.848 63.2894 208.891 63.2323 208.945 63.1922C208.998 63.1522 209.061 63.1309 209.125 63.1309C209.189 63.1309 209.251 63.1522 209.305 63.1922C209.359 63.2323 209.401 63.2894 209.427 63.3567L209.429 63.3582Z" fill="#FFEF75"/>
</g>
<path d="M49.5 237H46.5V246H49.5V237ZM49.5 258H46.5V267H49.5V258ZM63 250.5V253.5H54V250.5H63ZM42 253.5V250.5H33V253.5H42ZM52.5 244.5H55.5V247.5H52.5V244.5ZM58.5 241.5H55.5V244.5H58.5V241.5ZM43.5 244.5H40.5V247.5H43.5V244.5ZM37.5 241.5H40.5V244.5H37.5V241.5ZM52.5 259.5H55.5V262.5H58.5V259.5H55.5V256.5H52.5V259.5ZM40.5 259.5V256.5H43.5V259.5H40.5ZM40.5 259.5V262.5H37.5V259.5H40.5Z" fill="#FFEF75"/>
<path d="M78.5459 134.374L108.104 144.363L106.439 149.29L76.881 139.3L78.5459 134.374ZM70.2899 142.562L71.9548 137.636L76.881 139.3L75.2162 144.227L70.2899 142.562ZM60.3007 172.12L70.2899 142.562L65.3636 140.897L55.3744 170.455L60.3007 172.12ZM63.5621 178.711L65.2269 173.784L60.3007 172.12L58.6358 177.046L63.5621 178.711ZM93.1197 188.7L91.4549 193.626L61.8972 183.637L63.5621 178.711L93.1197 188.7ZM99.7109 185.438L98.046 190.365L93.1197 188.7L94.7846 183.774L99.7109 185.438ZM109.7 155.881L114.626 157.546L104.637 187.103L99.7109 185.438L109.7 155.881ZM109.7 155.881L111.365 150.955L106.439 149.29L104.774 154.216L109.7 155.881ZM88.3643 145.926L93.2906 147.591L91.6257 152.517L99.0151 155.014L97.3503 159.94L82.5714 154.946L80.9065 159.872L95.6854 164.867L90.6908 179.646L83.3014 177.148L81.6365 182.075L76.7102 180.41L78.3751 175.483L70.9857 172.986L72.6505 168.06L87.4294 173.054L89.0942 168.128L74.3154 163.134L79.31 148.355L86.6994 150.852L88.3643 145.926Z" fill="white"/>
<path d="M132.466 146.955L123.233 150.656L125.069 155.237L120.453 157.087L122.289 161.668L117.672 163.518L123.181 177.259L127.797 175.409L129.634 179.989L134.25 178.139L136.086 182.719L140.703 180.868L142.539 185.449L147.156 183.598L148.992 188.178L153.608 186.328L155.445 190.908L160.061 189.058L158.225 184.477L162.842 182.626L161.006 178.046L165.622 176.195L163.786 171.615L168.403 169.764L166.566 165.184L171.183 163.333L169.347 158.753L173.964 156.902L168.455 143.161L163.838 145.012L162.002 140.431L157.386 142.282L155.55 137.701L146.316 141.403L148.152 145.983L143.536 147.834L145.372 152.414L140.755 154.265L138.919 149.685L134.303 151.535L132.466 146.955ZM134.303 151.535L136.139 156.116L140.755 154.265L142.592 158.845L147.208 156.995L145.372 152.414L149.989 150.564L148.152 145.983L157.386 142.282L159.222 146.862L163.838 145.012L169.347 158.753L164.73 160.603L166.566 165.184L161.95 167.035L163.786 171.615L159.169 173.466L161.006 178.046L156.389 179.897L158.225 184.477L153.608 186.328L151.772 181.747L147.156 183.598L145.32 179.018L140.703 180.868L138.867 176.288L134.25 178.139L132.414 173.558L127.797 175.409L122.289 161.668L126.906 159.817L125.069 155.237L134.303 151.535Z" fill="white"/>
<defs>
<clipPath id="clip0_546_673">
<rect width="33" height="38" fill="white" transform="translate(183 60)"/>
</clipPath>
</defs>
</svg>
