<svg width="114" height="114" viewBox="0 0 114 114" fill="none" xmlns="http://www.w3.org/2000/svg">
<g clip-path="url(#clip0_336_963)">
<g filter="url(#filter0_d_336_963)">
<path d="M42.8299 9.08008H23.9369V18.6641H14.4904V28.2482H5.04395V57.0004H14.4904V66.5845H23.9369V76.1686H33.3834V85.7526H42.8299V95.3367H52.2764V104.921H61.7229V95.3367H71.1694V85.7526H80.6159V76.1686H90.0624V66.5845H99.5089V57.0004H108.955V28.2482H99.5089V18.6641H90.0624V9.08008H71.1694V18.6641H61.7229V28.2482H52.2764V18.6641H42.8299V9.08008ZM42.8299 18.6641V28.2482H52.2764V37.8323H61.7229V28.2482H71.1694V18.6641H90.0624V28.2482H99.5089V57.0004H90.0624V66.5845H80.6159V76.1686H71.1694V85.7526H61.7229V95.3367H52.2764V85.7526H42.8299V76.1686H33.3834V66.5845H23.9369V57.0004H14.4904V28.2482H23.9369V18.6641H42.8299Z" fill="white"/>
<path d="M43.8299 9.08008V8.08008H42.8299H23.9369H22.9369V9.08008V17.6641H14.4904H13.4904V18.6641V27.2482H5.04395H4.04395V28.2482V57.0004V58.0004H5.04395H13.4904V66.5845V67.5845H14.4904H22.9369V76.1686V77.1686H23.9369H32.3834V85.7526V86.7526H33.3834H41.8299V95.3367V96.3367H42.8299H51.2764V104.921V105.921H52.2764H61.7229H62.7229V104.921V96.3367H71.1694H72.1694V95.3367V86.7526H80.6159H81.6159V85.7526V77.1686H90.0624H91.0624V76.1686V67.5845H99.5089H100.509V66.5845V58.0004H108.955H109.955V57.0004V28.2482V27.2482H108.955H100.509V18.6641V17.6641H99.5089H91.0624V9.08008V8.08008H90.0624H71.1694H70.1694V9.08008V17.6641H61.7229H60.7229V18.6641V27.2482H53.2764V18.6641V17.6641H52.2764H43.8299V9.08008ZM41.8299 28.2482V29.2482H42.8299H51.2764V37.8323V38.8323H52.2764H61.7229H62.7229V37.8323V29.2482H71.1694H72.1694V28.2482V19.6641H89.0624V28.2482V29.2482H90.0624H98.5089V56.0004H90.0624H89.0624V57.0004V65.5845H80.6159H79.6159V66.5845V75.1686H71.1694H70.1694V76.1686V84.7526H61.7229H60.7229V85.7526V94.3367H53.2764V85.7526V84.7526H52.2764H43.8299V76.1686V75.1686H42.8299H34.3834V66.5845V65.5845H33.3834H24.9369V57.0004V56.0004H23.9369H15.4904V29.2482H23.9369H24.9369V28.2482V19.6641H41.8299V28.2482Z" stroke="#8B6CAC" stroke-width="2"/>
</g>
<rect x="22.1943" y="56.4951" width="69.6106" height="11.0973" fill="white"/>
<rect x="33.292" y="65.5752" width="47.4159" height="11.0973" fill="white"/>
<rect x="41.3633" y="74.6553" width="30.2655" height="11.0973" fill="white"/>
<rect x="52.46" y="85.752" width="9.07965" height="11.0973" fill="white"/>
<rect x="50.4424" y="83.7344" width="13.115" height="11.0973" fill="white"/>
<rect x="14.124" y="27.2393" width="85.7522" height="31.2743" fill="white"/>
<rect x="22.1943" y="18.1592" width="22.1947" height="10.0885" fill="white"/>
<rect x="69.6104" y="18.1592" width="22.1947" height="10.0885" fill="white"/>
<path d="M52.9842 77.84V76.36H51.3842V72.2H44.9442V70.36H42.8642V65.92H44.9442V64.08H58.4642V62.96H59.9842V61.92H58.4642V60.84H47.4242V59.16H45.5442V57.4H43.8242V55.52H42.3842V46.92H43.8242V44.96H45.4242V43.24H47.1442V41.64H51.3842V37.96H52.9842V36.52H59.1042V37.96H60.7042V41.64H66.5442V43.48H68.7042V47.88H66.5442V49.72H53.0242V50.84H51.5042V51.88H53.0242V53H64.1442V54.64H66.0642V56.4H67.7442V58.28H69.2242V66.88H67.7442V68.84H66.1442V70.6H64.4242V72.2H60.7042V76.36H59.1042V77.84H52.9842Z" fill="#8B6CAC"/>
</g>
<defs>
<filter id="filter0_d_336_963" x="3.04395" y="7.08008" width="115.911" height="107.841" filterUnits="userSpaceOnUse" color-interpolation-filters="sRGB">
<feFlood flood-opacity="0" result="BackgroundImageFix"/>
<feColorMatrix in="SourceAlpha" type="matrix" values="0 0 0 0 0 0 0 0 0 0 0 0 0 0 0 0 0 0 127 0" result="hardAlpha"/>
<feOffset dx="4" dy="4"/>
<feGaussianBlur stdDeviation="2"/>
<feComposite in2="hardAlpha" operator="out"/>
<feColorMatrix type="matrix" values="0 0 0 0 0 0 0 0 0 0 0 0 0 0 0 0 0 0 0.25 0"/>
<feBlend mode="normal" in2="BackgroundImageFix" result="effect1_dropShadow_336_963"/>
<feBlend mode="normal" in="SourceGraphic" in2="effect1_dropShadow_336_963" result="shape"/>
</filter>
<clipPath id="clip0_336_963">
<rect width="114" height="114" fill="white"/>
</clipPath>
</defs>
</svg>
