<svg width="256" height="52" viewBox="0 0 256 52" fill="none" xmlns="http://www.w3.org/2000/svg">
<rect width="256" height="52" rx="10" fill="#FEE500"/>
<path d="M65.5 9.12891C55.6 9.12891 47.5 15.3289 47.5 23.0289C47.5 27.8289 50.6 32.1289 55.4 34.6289L53.4 41.9289C53.2 42.6289 53.9 43.1289 54.5 42.7289L63.2 36.9289C64 36.9956 64.7667 37.0289 65.5 37.0289C75.4 37.0289 83.5 30.8289 83.5 23.0289C83.5 15.3289 75.4 9.12891 65.5 9.12891Z" fill="black" fill-opacity="0.9"/>
<path d="M139.264 29.34H134.438V31.069H140.081V31.829H140.86V33.824H140.081V34.584H124.539V33.824H123.76V31.829H124.539V31.069H130.182V29.34H125.546V28.58H124.767V22.671H125.546V21.911H135.73V20.999H125.546V20.239H124.767V18.491H125.546V17.731H139.074V18.491H139.853V24.324H139.074V25.084H128.871V26.034H139.264V26.794H140.043V28.58H139.264V29.34ZM143.989 17.731H157.555V18.491H158.315V28.314H157.555V29.093H154.952V28.314H154.192V21.398H143.989V20.638H143.229V18.491H143.989V17.731ZM158.543 30.651V31.411H159.322V33.577H158.543V34.356H143.001V33.577H142.222V31.411H143.001V30.651H158.543ZM171.362 20.106V31.924H170.545V32.76H169.766V33.558H168.987V34.375H163.211V33.558H162.394V32.76H161.615V31.924H160.817V20.106H161.615V19.27H162.394V18.472H163.211V17.655H168.987V18.472H169.766V19.27H170.545V20.106H171.362ZM176.283 17.731V18.491H177.005V24.077H178.24V24.761H178.81V27.079H178.24V27.763H177.005V34.28H176.283V35.04H173.547V34.28H172.806V18.491H173.547V17.731H176.283ZM167.391 21.835H166.745V21.208H165.396V21.835H164.788V30.195H165.396V30.822H166.745V30.195H167.391V21.835ZM193.282 24.704H182.11V24.115H181.274V23.545H180.533V22.918H179.849V19.498H180.495V18.89H181.179V18.301H181.939V17.731H193.415V18.301H194.213V18.89H194.897V19.498H195.543V22.918H194.859V23.545H194.118V24.115H193.282V24.704ZM190.907 21.626H191.553V20.79H190.907V20.334H184.485V20.79H183.839V21.626H184.485V22.082H190.907V21.626ZM179.146 26.034H179.792V25.388H195.6V26.034H196.246V27.63H195.6V28.276H189.862V29.34H189.216V29.777H189.995V30.328H191.059V30.879H192.218V31.487H193.472V32.133H194.802V32.817H195.733V34.527H194.859V35.154H191.857V34.489H190.622V33.824H189.444V33.197H188.323V32.589H187.069V33.197H185.948V33.824H184.77V34.489H183.535V35.154H180.533V34.527H179.659V32.817H180.59V32.133H181.92V31.487H183.174V30.879H184.333V30.328H185.378V29.777H186.176V29.34H185.53V28.276H179.792V27.63H179.146V26.034Z" fill="black"/>
</svg>
