<svg width="139" height="139" viewBox="0 0 139 139" fill="none" xmlns="http://www.w3.org/2000/svg">
<g id="fluent-emoji-flat:sparkling-heart">
<g id="Group">
<path id="Vector" d="M91.314 18.0702C78.9778 20.242 69.5084 34.7502 69.5084 34.7502C69.5084 34.7502 60.039 20.242 47.7028 18.0702C17.2966 12.7273 4.69968 39.398 9.78187 59.2923C18.8603 94.6505 69.5084 125.578 69.5084 125.578C69.5084 125.578 120.2 94.6505 129.235 59.2923C134.361 39.398 121.764 12.7273 91.314 18.0702Z" fill="#F92F60"/>
<path id="Vector_2" d="M106.952 39.0508C107.386 40.0498 108.168 40.8752 109.167 41.3095L113.337 43.1339C114.597 43.742 114.597 45.523 113.337 46.1311L109.124 47.9989C108.124 48.4333 107.343 49.2586 106.908 50.2577L103.607 58.033C102.999 59.2492 101.218 59.2492 100.61 58.033L97.3086 50.2577C96.8818 49.2521 96.0904 48.4451 95.0932 47.9989L90.8798 46.1311C90.5964 45.9964 90.3571 45.7841 90.1895 45.5188C90.0219 45.2536 89.9329 44.9463 89.9329 44.6325C89.9329 44.3187 90.0219 44.0114 90.1895 43.7462C90.3571 43.4809 90.5964 43.2686 90.8798 43.1339L95.0932 41.2661C96.0923 40.8317 96.8742 40.0064 97.3086 39.0073L100.653 31.2755C101.261 30.0592 103.042 30.0592 103.65 31.2755L106.952 39.0508ZM45.8351 82.0105C46.6604 83.8783 48.0939 85.3986 49.9617 86.2239L57.6936 89.6989C59.9957 90.8283 59.9957 94.0861 57.6936 95.2155L49.9617 98.6905C48.0939 99.5592 46.617 101.036 45.8351 102.904L39.7104 117.282C39.4589 117.799 39.0669 118.236 38.5791 118.541C38.0914 118.846 37.5276 119.008 36.9521 119.008C36.3767 119.008 35.8129 118.846 35.3252 118.541C34.8374 118.236 34.4454 117.799 34.1939 117.282L28.0692 102.904C27.2439 101.036 25.8104 99.5158 23.9426 98.6905L16.2107 95.2155C15.6932 94.964 15.2568 94.5719 14.9516 94.0842C14.6463 93.5964 14.4844 93.0326 14.4844 92.4572C14.4844 91.8818 14.6463 91.318 14.9516 90.8302C15.2568 90.3424 15.6932 89.9504 16.2107 89.6989L23.9426 86.2239C25.8104 85.3552 27.2873 83.8783 28.0692 82.0105L34.1939 67.6327C34.4454 67.1151 34.8374 66.6787 35.3252 66.3735C35.8129 66.0682 36.3767 65.9063 36.9521 65.9063C37.5276 65.9063 38.0914 66.0682 38.5791 66.3735C39.0669 66.6787 39.4589 67.1151 39.7104 67.6327L45.8351 82.0105Z" fill="#FCD53F"/>
</g>
</g>
</svg>
