<svg width="125" height="148" viewBox="0 0 125 148" fill="none" xmlns="http://www.w3.org/2000/svg">
<g id="Group">
<path id="Vector" fill-rule="evenodd" clip-rule="evenodd" d="M70.9759 7.31541C72.7186 9.32216 75.6759 9.69183 77.8411 8.16036C81.6533 5.44418 86.4974 8.87681 85.8164 12.9875C85.6625 13.9166 85.0784 14.699 84.4588 15.4082L75.6015 25.5465C73.7025 27.7202 70.957 28.9673 68.0707 28.9673H56.7256C53.8349 28.9673 51.0857 27.7164 49.1865 25.5371L40.2332 15.2627C39.6077 14.545 39.02 13.7523 38.8663 12.8128C38.1874 8.66434 43.0305 5.23343 46.842 7.94912L47.2116 8.21317C49.3768 9.74464 52.3341 9.32216 54.024 7.31541L58.6185 1.82322C59.0917 1.25277 59.6849 0.793634 60.3558 0.478506C61.0267 0.163377 61.7588 0 62.5 0C63.2412 0 63.9733 0.163377 64.6442 0.478506C65.315 0.793634 65.9082 1.25277 66.3815 1.82322L70.9759 7.31541ZM0 101.527C0 66.9901 27.989 39.0011 62.5264 39.0011C97.0637 39.0011 125.053 66.9901 125 101.527C125 127.034 104.299 147.736 78.7917 147.736H46.2083C20.7013 147.736 0 127.034 0 101.527Z" fill="#F3C07B"/>
<path id="Vector_2" fill-rule="evenodd" clip-rule="evenodd" d="M53.4419 28.8594H71.6084C74.8297 28.8594 77.4702 31.4998 77.4702 34.7212C77.4702 37.9426 74.8297 40.5831 71.6084 40.5831H53.4419C50.2205 40.5831 47.5801 37.9426 47.5801 34.7212C47.5801 31.4998 50.2205 28.8594 53.4419 28.8594ZM62.5251 91.597H62.8948C70.8162 91.8082 77.1534 98.251 77.1534 106.172C77.1534 110.83 74.9719 114.961 71.5765 117.633C68.833 119.792 66.3274 122.696 66.3274 126.187V126.187C66.3274 128.3 64.6375 129.989 62.5251 129.989C60.4128 129.989 58.7229 128.3 58.7229 126.187V126.187C58.7229 122.698 56.2131 119.798 53.4719 117.639C52.5236 116.892 51.6657 116.026 50.9213 115.056C48.9645 112.508 47.9016 109.386 47.8969 106.172C47.8969 104.06 49.5868 102.37 51.6992 102.37C53.8116 102.37 55.5015 104.06 55.5015 106.172C55.5015 110.08 58.6172 113.196 62.4723 113.196C66.3274 113.196 69.496 110.027 69.496 106.172C69.496 102.317 66.3274 99.1487 62.4723 99.1487H62.1027C58.3037 99.0456 54.6945 97.4655 52.0419 94.7439C49.3894 92.0223 47.9024 88.3737 47.8969 84.5733C47.8969 79.9155 50.0784 75.7843 53.4738 73.1126C56.2173 70.9539 58.7229 68.0495 58.7229 64.5586V64.5586C58.7229 62.4462 60.4128 60.7563 62.5251 60.7563C64.6375 60.7563 66.3274 62.4462 66.3274 64.5586V64.5586C66.3274 68.0495 68.833 70.9539 71.5765 73.1126C74.9719 75.7843 77.1534 79.9155 77.1534 84.5733C77.1534 86.6857 75.4635 88.3756 73.3511 88.3756C71.2387 88.3756 69.5488 86.6857 69.5488 84.5733C69.5488 80.7182 66.3802 77.5497 62.5251 77.5497C58.6701 77.5497 55.5015 80.7182 55.5015 84.5733C55.5015 88.4284 58.6701 91.597 62.5251 91.597Z" fill="#8C5543"/>
</g>
</svg>
